Coordinates
version=1
nRows=54
nColumns=12
inDegrees=yes

Units are S.I. units (second, meters, Newtons, ...)
Angles are in degrees

endheader
time	SC_y	SC_z	SC_x	AC_y	AC_z	AC_x	GH_y	GH_z	GH_yy	EL_x	PS_y
       0.0              -19.34          30.56          32.73          65.72         -2.194          11.21          3.716          38.03         -72.46          13.24          45.16
   0.04743              -19.34          30.55          32.73          65.73         -2.196          11.21          3.704          38.04         -72.44          13.26          45.16
   0.09485              -19.34          30.55          32.74          65.73         -2.199           11.2          3.692          38.04         -72.42          13.28          45.16
    0.1423              -19.35          30.55          32.75          65.73         -2.202           11.2          3.679          38.05         -72.39          13.29          45.16
    0.1897              -19.35          30.54          32.75          65.73         -2.205          11.19          3.665          38.05         -72.36          13.31          45.16
    0.2371              -19.35          30.54          32.76          65.73         -2.208          11.19           3.65          38.06         -72.34          13.33          45.16
    0.2846              -19.35          30.53          32.77          65.73         -2.211          11.18          3.634          38.07         -72.31          13.35          45.16
     0.332              -19.35          30.52          32.78          65.73         -2.215          11.18          3.617          38.07         -72.27          13.38          45.16
    0.3794              -19.36          30.52          32.79          65.73         -2.219          11.17          3.599          38.08         -72.24           13.4          45.16
    0.4268              -19.36          30.51           32.8          65.73         -2.223          11.17          3.579          38.09          -72.2          13.43          45.16
    0.4743              -19.36           30.5          32.82          65.73         -2.227          11.16          3.558          38.09         -72.16          13.46          45.15
    0.5217              -19.36           30.5          32.83          65.73         -2.232          11.16          3.536           38.1         -72.12          13.49          45.15
    0.5691              -19.37          30.49          32.84          65.74         -2.237          11.15          3.512          38.11         -72.08          13.52          45.15
    0.6165              -19.37          30.48          32.86          65.74         -2.243          11.14          3.485          38.12         -72.03          13.56          45.15
     0.664              -19.37          30.47          32.87          65.74         -2.249          11.13          3.457          38.13         -71.97           13.6          45.15
    0.7114              -19.37          30.46          32.89          65.74         -2.255          11.12          3.426          38.15         -71.92          13.64          45.15
    0.7588              -19.38          30.45          32.91          65.74         -2.262          11.11          3.393          38.16         -71.85          13.69          45.15
    0.8062              -19.38          30.44          32.93          65.74          -2.27           11.1          3.356          38.17         -71.78          13.74          45.14
    0.8537              -19.39          30.42          32.95          65.75         -2.279          11.09          3.316          38.19         -71.71          13.79          45.14
    0.9011              -19.39          30.41          32.98          65.75         -2.288          11.08          3.273           38.2         -71.63          13.85          45.14
    0.9485               -19.4          30.39          33.01          65.75         -2.298          11.06          3.225          38.22         -71.54          13.92          45.14
    0.9959               -19.4          30.37          33.04          65.75         -2.309          11.05          3.172          38.24         -71.44          13.99          45.13
     1.043              -19.41          30.35          33.07          65.76         -2.321          11.03          3.114          38.27         -71.33          14.07          45.13
     1.091              -19.42          30.33          33.11          65.76         -2.335          11.01          3.049          38.29         -71.21          14.16          45.13
     1.138              -19.42          30.31          33.15          65.76          -2.35          10.99          2.977          38.32         -71.07          14.26          45.12
     1.186              -19.43          30.28           33.2          65.77         -2.367          10.96          2.897          38.35         -70.92          14.37          45.12
     1.233              -19.44          30.25          33.25          65.77         -2.386          10.94          2.808          38.38         -70.75          14.49          45.12
      1.28              -19.46          30.22          33.31          65.78         -2.408          10.91          2.707          38.42         -70.56          14.63          45.11
     1.328              -19.47          30.18          33.37          65.78         -2.432          10.87          2.593          38.47         -70.35          14.78           45.1
     1.375              -19.48          30.13          33.45          65.79         -2.459          10.83          2.463          38.52          -70.1          14.96           45.1
     1.423               -19.5          30.08          33.53           65.8         -2.491          10.79          2.316          38.57         -69.83          15.17          45.09
      1.47              -19.52          30.03          33.63          65.81         -2.527          10.74          2.146          38.64         -69.51           15.4          45.08
     1.518              -19.54          29.96          33.74          65.82         -2.568          10.68           1.95          38.72         -69.14          15.67          45.07
     1.565              -19.57          29.88          33.87          65.83         -2.616          10.61          1.723           38.8         -68.71          15.98          45.06
     1.612               -19.6          29.79          34.02          65.85         -2.673          10.53          1.457          38.91         -68.21          16.34          45.05
      1.66              -19.63          29.69           34.2          65.86         -2.739          10.43          1.143          39.03         -67.62          16.78          45.03
     1.707              -19.67          29.56          34.42          65.88         -2.818          10.32         0.7704          39.17         -66.92          17.29          45.01
     1.755              -19.72          29.41          34.68          65.91         -2.913          10.19         0.3236          39.34         -66.08           17.9          44.99
     1.802              -19.78          29.22          34.99          65.93         -3.028          10.03         -0.217          39.55         -65.06          18.64          44.96
      1.85              -19.86           29.0          35.37          65.97         -3.168          9.826        -0.8774          39.81         -63.82          19.55          44.92
     1.897              -19.95          28.72          35.83          66.01          -3.34          9.581         -1.692          40.12         -62.29          20.67          44.88
     1.944              -20.06          28.38          36.42          66.07         -3.556          9.275         -2.709          40.52         -60.38          22.07          44.83
     1.992              -20.21          27.95          37.16          66.14         -3.827          8.889         -3.989          41.01         -57.97          23.82          44.76
     2.039              -20.39          27.39          38.09          66.22         -4.173          8.399         -5.617          41.64         -54.91          26.06          44.68
     2.087              -20.62          26.69          39.29          66.34         -4.614          7.772           -7.7          42.45         -50.99          28.92          44.57
     2.134              -20.92          25.78          40.83          66.48         -5.181          6.967         -10.37          43.48         -45.96          32.59          44.43
     2.182              -21.31          24.62          42.79          66.66         -5.905          5.938         -13.79           44.8         -39.53          37.28          44.26
     2.229              -21.79          23.17          45.26          66.89         -6.816          4.645         -18.08          46.46         -31.46          43.18          44.03
     2.276              -22.37           21.4          48.27          67.17         -7.925           3.07         -23.32          48.48         -21.62          50.37          43.76
     2.324              -23.05          19.34          51.75           67.5         -9.211          1.243         -29.38          50.83         -10.21           58.7          43.45
     2.371              -23.79          17.11          55.53          67.85          -10.6        -0.7342         -35.95          53.36          2.146          67.72          43.11
     2.419              -24.53          14.89          59.31           68.2          -12.0         -2.712         -42.52           55.9           14.5          76.74          42.77
     2.466              -25.21          12.83          62.79          68.52         -13.28         -4.538         -48.58          58.25          25.91          85.07          42.45
     2.514              -25.79          11.06           65.8           68.8         -14.39         -6.114         -53.81          60.27          35.75          92.25          42.18
